<svg class="diagram-root" style="background: #f5f6f6" xmlns="http://www.w3.org/2000/svg" xmlns:xlink="http://www.w3.org/1999/xlink"><style>.diagram-root { font-family: "Helvetica Neue", sans-serif; font-size: 12px; } .t { overflow: visible; } .t-bg { y: 40; fill: #fff;   } .th { fill: #005aa0;   } .tht { fill: #fff; font-size: 14px;  } .tf { fill: #323c46; overflow: visible; } .tf.pk { fill: #005aa0; font-weight: bold; } .tf.fk { font-weight: bold; } .ty { fill: #adb1b5; font-weight: normal; text-anchor: end; } .r { fill: transparent; stroke: #c3c3c3; stroke-width: 1; } .l { stroke: 1; } .i { fill: #c2c7ce; stroke: #c2c7ce; } .i.ix { fill: #afb3b6; stroke: #000; } .fa { fill: transparent; overflow: visible; } .fa .bg.hover { fill: #f7f7f7; } .c { cy: 12; r: 4; stroke: #d2d2dc; fill: #d2d2dc; } .hr { fill: transparent; stroke: #323c46; stroke-opacity: 0.035; stroke-width: 13; } .dc { stroke: #fa5a3c; fill: #fa5a3c; } .x { stroke: white; stroke-width: 1; } .hl .th { fill: #1b9bff; } .hl .tht {  } .fhl .bg { fill: #e7f4ff; } .fhls .bg {  } .r.hl { stroke: #1b9bff; } .dim { opacity: 0.25; }</style><g class="drawing-wrapper" transform="translate(35, -52) scale(1,1)"><g class="rs"><path d="M 386.06 463 m -1, 0 a 1,1 0 1,0 2,0 a 1,1 0 1,0 -2,0 M 386.06 463 m -0.5, 0 a 0.5,0.5 0 1,0 1,0 a 0.5,0.5 0 1,0 -1,0  M386.06 463 L386.06 463 398.06 463 M392.06 469 L392.06 469 392.06 457 M398.06 463 Q 431.04 463, 464.03 465 T 530 467 M 542 467 m -1, 0 a 1,1 0 1,0 2,0 a 1,1 0 1,0 -2,0 M 542 467 m -0.5, 0 a 0.5,0.5 0 1,0 1,0 a 0.5,0.5 0 1,0 -1,0  M542 467 L542 467 530 467 M 542 473 m -1, 0 a 1,1 0 1,0 2,0 a 1,1 0 1,0 -2,0 M 542 473 m -0.5, 0 a 0.5,0.5 0 1,0 1,0 a 0.5,0.5 0 1,0 -1,0  M542 473 L542 473 535 467 542 461 M 542 461 m -1, 0 a 1,1 0 1,0 2,0 a 1,1 0 1,0 -2,0 M 542 461 m -0.5, 0 a 0.5,0.5 0 1,0 1,0 a 0.5,0.5 0 1,0 -1,0 " id="h1542940388" class="r"></path><path d="M 386.06 588 m -1, 0 a 1,1 0 1,0 2,0 a 1,1 0 1,0 -2,0 M 386.06 588 m -0.5, 0 a 0.5,0.5 0 1,0 1,0 a 0.5,0.5 0 1,0 -1,0  M386.06 588 L386.06 588 398.06 588 M 386.06 594 m -1, 0 a 1,1 0 1,0 2,0 a 1,1 0 1,0 -2,0 M 386.06 594 m -0.5, 0 a 0.5,0.5 0 1,0 1,0 a 0.5,0.5 0 1,0 -1,0  M386.06 594 L386.06 594 393.06 588 386.06 582 M 386.06 582 m -1, 0 a 1,1 0 1,0 2,0 a 1,1 0 1,0 -2,0 M 386.06 582 m -0.5, 0 a 0.5,0.5 0 1,0 1,0 a 0.5,0.5 0 1,0 -1,0  M398.06 588 Q 429.79 588, 461.53 606.5 T 525 625 M 537 625 m -1, 0 a 1,1 0 1,0 2,0 a 1,1 0 1,0 -2,0 M 537 625 m -0.5, 0 a 0.5,0.5 0 1,0 1,0 a 0.5,0.5 0 1,0 -1,0  M537 625 L537 625 525 625 M531 631 L531 631 531 619" id="h4229874552" class="r"></path><path d="M 671.36 492 m -1, 0 a 1,1 0 1,0 2,0 a 1,1 0 1,0 -2,0 M 671.36 492 m -0.5, 0 a 0.5,0.5 0 1,0 1,0 a 0.5,0.5 0 1,0 -1,0  M671.36 492 L671.36 492 683.36 492 M 671.36 498 m -1, 0 a 1,1 0 1,0 2,0 a 1,1 0 1,0 -2,0 M 671.36 498 m -0.5, 0 a 0.5,0.5 0 1,0 1,0 a 0.5,0.5 0 1,0 -1,0  M671.36 498 L671.36 498 678.36 492 671.36 486 M 671.36 486 m -1, 0 a 1,1 0 1,0 2,0 a 1,1 0 1,0 -2,0 M 671.36 486 m -0.5, 0 a 0.5,0.5 0 1,0 1,0 a 0.5,0.5 0 1,0 -1,0  M683.36 492 Q 702.02 492, 720.68 480.5 T 758 469 M 770 469 m -1, 0 a 1,1 0 1,0 2,0 a 1,1 0 1,0 -2,0 M 770 469 m -0.5, 0 a 0.5,0.5 0 1,0 1,0 a 0.5,0.5 0 1,0 -1,0  M770 469 L770 469 758 469 M764 475 L764 475 764 463" id="h4031228826" class="r"></path><path d="M 121.04 317 m -1, 0 a 1,1 0 1,0 2,0 a 1,1 0 1,0 -2,0 M 121.04 317 m -0.5, 0 a 0.5,0.5 0 1,0 1,0 a 0.5,0.5 0 1,0 -1,0  M121.04 317 L121.04 317 133.04000000000002 317 M 121.04 323 m -1, 0 a 1,1 0 1,0 2,0 a 1,1 0 1,0 -2,0 M 121.04 323 m -0.5, 0 a 0.5,0.5 0 1,0 1,0 a 0.5,0.5 0 1,0 -1,0  M121.04 323 L121.04 323 128.04000000000002 317 121.04 311 M 121.04 311 m -1, 0 a 1,1 0 1,0 2,0 a 1,1 0 1,0 -2,0 M 121.04 311 m -0.5, 0 a 0.5,0.5 0 1,0 1,0 a 0.5,0.5 0 1,0 -1,0  M133.04000000000002 317 Q 196.03 317, 259.02 228 T 385 139 M 397 139 m -1, 0 a 1,1 0 1,0 2,0 a 1,1 0 1,0 -2,0 M 397 139 m -0.5, 0 a 0.5,0.5 0 1,0 1,0 a 0.5,0.5 0 1,0 -1,0  M397 139 L397 139 385 139 M391 145 L391 145 391 133" id="h3860441800" class="r"></path><path d="M 121.04 342 m -1, 0 a 1,1 0 1,0 2,0 a 1,1 0 1,0 -2,0 M 121.04 342 m -0.5, 0 a 0.5,0.5 0 1,0 1,0 a 0.5,0.5 0 1,0 -1,0  M121.04 342 L121.04 342 133.04000000000002 342 M 121.04 348 m -1, 0 a 1,1 0 1,0 2,0 a 1,1 0 1,0 -2,0 M 121.04 348 m -0.5, 0 a 0.5,0.5 0 1,0 1,0 a 0.5,0.5 0 1,0 -1,0  M121.04 348 L121.04 348 128.04000000000002 342 121.04 336 M 121.04 336 m -1, 0 a 1,1 0 1,0 2,0 a 1,1 0 1,0 -2,0 M 121.04 336 m -0.5, 0 a 0.5,0.5 0 1,0 1,0 a 0.5,0.5 0 1,0 -1,0  M133.04000000000002 342 Q 150.28 342, 167.52 402.5 T 202 463 M 214 463 m -1, 0 a 1,1 0 1,0 2,0 a 1,1 0 1,0 -2,0 M 214 463 m -0.5, 0 a 0.5,0.5 0 1,0 1,0 a 0.5,0.5 0 1,0 -1,0  M214 463 L214 463 202 463 M208 469 L208 469 208 457" id="h3355356883" class="r"></path><path d="M 686 182 m -1, 0 a 1,1 0 1,0 2,0 a 1,1 0 1,0 -2,0 M 686 182 m -0.5, 0 a 0.5,0.5 0 1,0 1,0 a 0.5,0.5 0 1,0 -1,0  M686 182 L686 182 674 182 M 686 188 m -1, 0 a 1,1 0 1,0 2,0 a 1,1 0 1,0 -2,0 M 686 188 m -0.5, 0 a 0.5,0.5 0 1,0 1,0 a 0.5,0.5 0 1,0 -1,0  M686 188 L686 188 679 182 686 176 M 686 176 m -1, 0 a 1,1 0 1,0 2,0 a 1,1 0 1,0 -2,0 M 686 176 m -0.5, 0 a 0.5,0.5 0 1,0 1,0 a 0.5,0.5 0 1,0 -1,0  M674 182 Q 642.09 182, 610.18 160.5 T 546.37 139 M 534.37 139 m -1, 0 a 1,1 0 1,0 2,0 a 1,1 0 1,0 -2,0 M 534.37 139 m -0.5, 0 a 0.5,0.5 0 1,0 1,0 a 0.5,0.5 0 1,0 -1,0  M534.37 139 L534.37 139 546.37 139 M540.37 145 L540.37 145 540.37 133" id="h3127417765" class="r"></path><path d="M 686 207 m -1, 0 a 1,1 0 1,0 2,0 a 1,1 0 1,0 -2,0 M 686 207 m -0.5, 0 a 0.5,0.5 0 1,0 1,0 a 0.5,0.5 0 1,0 -1,0  M686 207 L686 207 674 207 M 686 213 m -1, 0 a 1,1 0 1,0 2,0 a 1,1 0 1,0 -2,0 M 686 213 m -0.5, 0 a 0.5,0.5 0 1,0 1,0 a 0.5,0.5 0 1,0 -1,0  M686 213 L686 213 679 207 686 201 M 686 201 m -1, 0 a 1,1 0 1,0 2,0 a 1,1 0 1,0 -2,0 M 686 201 m -0.5, 0 a 0.5,0.5 0 1,0 1,0 a 0.5,0.5 0 1,0 -1,0  M674 207 Q 642.09 207, 610.18 173 T 546.37 139 M 534.37 139 m -1, 0 a 1,1 0 1,0 2,0 a 1,1 0 1,0 -2,0 M 534.37 139 m -0.5, 0 a 0.5,0.5 0 1,0 1,0 a 0.5,0.5 0 1,0 -1,0  M534.37 139 L534.37 139 546.37 139 M540.37 145 L540.37 145 540.37 133" id="h3278203886" class="r"></path></g><g class="hrs"></g><g class="ts"><svg width="140.72" height="100" x="537" y="568" id="h1129032390" class="t"><rect height="40" width="140.72" class="th"></rect><text x="13" y="25" class="tht">ratings</text><rect height="60" width="140.72" class="t-bg" y="40"></rect><text x="13" y="61" class="tf pk">rating_id<tspan x="127.72" class="ty">bigint</tspan></text><path d="M7,14A2,2 0 0,1 5,12A2,2 0 0,1 7,10A2,2 0 0,1 9,12A2,2 0 0,1 7,14M12.65,10C11.83,7.67 9.61,6 7, 6A6, 6 0 0, 0 1, 12A6, 6 0 0, 0 7, 18C9.61, 18 11.83, 16.33 12.65, 14H17V18H21V14H23V10H12.65Z" class="i pk" transform="translate(79.0325, 48) scale(0.65)"></path><text x="13" y="86" class="tf">name<tspan x="127.72" class="ty">varchar(10)</tspan></text></svg><svg width="129.36" height="100" x="542" y="410" id="h1001868982" class="t"><rect height="40" width="129.36" class="th"></rect><text x="13" y="25" class="tht">film_genres</text><rect height="60" width="129.36" class="t-bg" y="40"></rect><text x="13" y="61" class="tf pk">film_id<tspan x="116.36000000000001" class="ty">bigint</tspan></text><path d="M7,14A2,2 0 0,1 5,12A2,2 0 0,1 7,10A2,2 0 0,1 9,12A2,2 0 0,1 7,14M12.65,10C11.83,7.67 9.61,6 7, 6A6, 6 0 0, 0 1, 12A6, 6 0 0, 0 7, 18C9.61, 18 11.83, 16.33 12.65, 14H17V18H21V14H23V10H12.65Z" class="i pk" transform="translate(67.67250000000001, 48) scale(0.65)"></path><text x="13" y="86" class="tf fk">genre_id<tspan x="116.36000000000001" class="ty">bigint</tspan></text></svg><svg width="141.39" height="100" x="770" y="412" id="h1632618054" class="t"><rect height="40" width="141.39" class="th"></rect><text x="13" y="25" class="tht">genres</text><rect height="60" width="141.39" class="t-bg" y="40"></rect><text x="13" y="61" class="tf pk">genre_id<tspan x="128.39" class="ty">bigint</tspan></text><path d="M7,14A2,2 0 0,1 5,12A2,2 0 0,1 7,10A2,2 0 0,1 9,12A2,2 0 0,1 7,14M12.65,10C11.83,7.67 9.61,6 7, 6A6, 6 0 0, 0 1, 12A6, 6 0 0, 0 7, 18C9.61, 18 11.83, 16.33 12.65, 14H17V18H21V14H23V10H12.65Z" class="i pk" transform="translate(79.70249999999999, 48) scale(0.65)"></path><text x="13" y="86" class="tf">name<tspan x="128.39" class="ty">varchar(25)</tspan></text></svg><svg width="120.72" height="100" x="686" y="125" id="h1748620893" class="t"><rect height="40" width="120.72" class="th"></rect><text x="13" y="25" class="tht">friends</text><rect height="60" width="120.72" class="t-bg" y="40"></rect><text x="13" y="61" class="tf fk">user_id<tspan x="107.72" class="ty">bigint</tspan></text><text x="13" y="86" class="tf fk">friend_id<tspan x="107.72" class="ty">bigint</tspan></text></svg><svg width="137.37" height="175" x="397" y="82" id="h2948373614" class="t"><rect height="40" width="137.37" class="th"></rect><text x="13" y="25" class="tht">users</text><rect height="135" width="137.37" class="t-bg" y="40"></rect><text x="13" y="61" class="tf pk">user_id<tspan x="124.37" class="ty">bignit</tspan></text><path d="M7,14A2,2 0 0,1 5,12A2,2 0 0,1 7,10A2,2 0 0,1 9,12A2,2 0 0,1 7,14M12.65,10C11.83,7.67 9.61,6 7, 6A6, 6 0 0, 0 1, 12A6, 6 0 0, 0 7, 18C9.61, 18 11.83, 16.33 12.65, 14H17V18H21V14H23V10H12.65Z" class="i pk" transform="translate(75.6825, 48) scale(0.65)"></path><text x="13" y="86" class="tf">email<tspan x="124.37" class="ty">varchar(50)</tspan></text><text x="13" y="111" class="tf">login<tspan x="124.37" class="ty">varchar(50)</tspan></text><text x="13" y="136" class="tf">name<tspan x="124.37" class="ty">varchar(50)</tspan></text><text x="13" y="161" class="tf">birthday<tspan x="124.37" class="ty">date</tspan></text></svg><svg width="172.06" height="200" x="214" y="406" id="h907613820" class="t"><rect height="40" width="172.06" class="th"></rect><text x="13" y="25" class="tht">films</text><rect height="160" width="172.06" class="t-bg" y="40"></rect><text x="13" y="61" class="tf pk">film_id<tspan x="159.06" class="ty">bigint</tspan></text><path d="M7,14A2,2 0 0,1 5,12A2,2 0 0,1 7,10A2,2 0 0,1 9,12A2,2 0 0,1 7,14M12.65,10C11.83,7.67 9.61,6 7, 6A6, 6 0 0, 0 1, 12A6, 6 0 0, 0 7, 18C9.61, 18 11.83, 16.33 12.65, 14H17V18H21V14H23V10H12.65Z" class="i pk" transform="translate(110.3725, 48) scale(0.65)"></path><text x="13" y="86" class="tf">name<tspan x="159.06" class="ty">varchar(50)</tspan></text><text x="13" y="111" class="tf">description<tspan x="159.06" class="ty">varchar(200)</tspan></text><text x="13" y="136" class="tf">releaseDate<tspan x="159.06" class="ty">date</tspan></text><text x="13" y="161" class="tf">duration<tspan x="159.06" class="ty">bigint</tspan></text><text x="13" y="186" class="tf fk">rating_id<tspan x="159.06" class="ty">bigint</tspan></text></svg><svg width="134.04" height="100" x="-13" y="260" id="h1213380004" class="t"><rect height="40" width="134.04" class="th"></rect><text x="13" y="25" class="tht">likes</text><rect height="60" width="134.04" class="t-bg" y="40"></rect><text x="13" y="61" class="tf pk">user_id<tspan x="121.03999999999999" class="ty">bigint</tspan></text><path d="M7,14A2,2 0 0,1 5,12A2,2 0 0,1 7,10A2,2 0 0,1 9,12A2,2 0 0,1 7,14M12.65,10C11.83,7.67 9.61,6 7, 6A6, 6 0 0, 0 1, 12A6, 6 0 0, 0 7, 18C9.61, 18 11.83, 16.33 12.65, 14H17V18H21V14H23V10H12.65Z" class="i pk" transform="translate(72.35249999999999, 48) scale(0.65)"></path><text x="13" y="86" class="tf fk">film_id<tspan x="121.03999999999999" class="ty">bigint</tspan></text></svg></g></g><text class="qdbd-link" x="10" y="20">www.quickdatabasediagrams.com</text></svg>